<?xml version="1.0" encoding="UTF-8"?>
<svg id="Layer_2" data-name="Layer 2" xmlns="http://www.w3.org/2000/svg" viewBox="0 0 25 25">
  <defs>
    <style>
      .cls-1 {
        fill: #fff;
        stroke-width: 0px;
      }
    </style>
  </defs>
  <g id="Layer_1-2" data-name="Layer 1">
    <path class="cls-1" d="m12.5,2c5.79,0,10.5,4.71,10.5,10.5s-4.71,10.5-10.5,10.5S2,18.29,2,12.5,6.71,2,12.5,2m0-2C5.6,0,0,5.6,0,12.5s5.6,12.5,12.5,12.5,12.5-5.6,12.5-12.5S19.4,0,12.5,0h0Z"/>
    <polygon class="cls-1" points="18.16 16.74 13.91 12.5 18.16 8.26 16.74 6.84 12.5 11.09 8.26 6.84 6.84 8.26 11.09 12.5 6.84 16.74 8.26 18.16 12.5 13.91 16.74 18.16 18.16 16.74"/>
  </g>
</svg>