<?xml version="1.0" encoding="UTF-8"?>
<svg id="Layer_2" data-name="Layer 2" xmlns="http://www.w3.org/2000/svg" viewBox="0 0 20 20">
  <defs>
    <style>
      .cls-1 {
        fill: #fff;
        stroke-width: 0px;
      }
    </style>
  </defs>
  <g id="Layer_1-2" data-name="Layer 1">
    <g>
      <g>
        <path class="cls-1" d="m8.92,9.19l-1.03-.82c-.25-.2-.6-.2-.84,0l-1.03.82"/>
        <path class="cls-1" d="m13.97,9.19l-1.03-.82c-.25-.2-.6-.2-.84,0l-1.03.82"/>
        <path class="cls-1" d="m13.97,9.19l1.18.95.84-1.05-3.05-2.44c-.25-.2-.6-.2-.84,0l-1.68,1.35c-.25.2-.6.2-.84,0l-1.68-1.35c-.25-.2-.6-.2-.84,0l-3.05,2.44.84,1.05,1.18-.95,1.03-.82c.25-.2.6-.2.84,0l1.03.82.66.53c.25.2.6.2.84,0l.66-.53,1.03-.82c.25-.2.6-.2.84,0l1.03.82Z"/>
        <path class="cls-1" d="m13.97,12.56l1.18.95.84-1.05-3.05-2.44c-.25-.2-.6-.2-.84,0l-1.68,1.35c-.25.2-.6.2-.84,0l-1.68-1.35c-.25-.2-.6-.2-.84,0l-3.05,2.44.84,1.05,1.18-.95,1.03-.82c.25-.2.6-.2.84,0l1.03.82.66.53c.25.2.6.2.84,0l.66-.53,1.03-.82c.25-.2.6-.2.84,0l1.03.82Z"/>
      </g>
      <path class="cls-1" d="m15.94,4.06c3.28,3.28,3.28,8.6,0,11.88-3.28,3.28-8.6,3.28-11.88,0S.79,7.34,4.06,4.06c3.28-3.28,8.6-3.28,11.88,0m1.13-1.13C13.17-.98,6.83-.98,2.93,2.93s-3.91,10.24,0,14.14c3.91,3.91,10.24,3.91,14.14,0s3.91-10.24,0-14.14h0Z"/>
    </g>
  </g>
</svg>