<?xml version="1.0" encoding="UTF-8"?>
<svg id="Layer_2" data-name="Layer 2" xmlns="http://www.w3.org/2000/svg" viewBox="0 0 19.61 21">
  <defs>
    <style>
      .cls-1 {
        fill: #fff;
        stroke-width: 0px;
      }
    </style>
  </defs>
  <g id="Layer_1-2" data-name="Layer 1">
    <g>
      <path class="cls-1" d="m16.34,13.69l-.67.54h0s-.74.59-.74.59c-.1.08-.23.12-.35.12s-.25-.04-.35-.12l-1.42-1.13c-.21-.17-.5-.17-.71,0l-2.56,2.05.71.88.99-.8.86-.69c.21-.17.5-.17.71,0l.69.55h0l.17.14.55.44c.1.08.21.11.33.12,0,0,.02,0,.03,0h0c.13,0,.25-.04.35-.12l.55-.44.86-.69c.21-.17.5-.17.71,0l.86.69.99.8.71-.88-2.56-2.05c-.21-.17-.5-.17-.71,0Z"/>
      <path class="cls-1" d="m13.96,16.6l-.55-.44-.1-.08c-.14.26-.3.52-.48.76-1.18,1.57-2.99,2.48-4.96,2.48s-3.77-.9-4.96-2.48c-1.64-2.19-1.64-5.25,0-7.43L7.88,2.8l4.96,6.61c.38.5.66,1.05.86,1.63l.79.63s.07.03.09.03.06,0,.09-.03l.8-.64c-.26-.93-.68-1.82-1.28-2.63L7.88,0,1.58,8.4c-2.1,2.8-2.1,6.65,0,9.45,1.57,2.1,3.94,3.15,6.3,3.15s4.72-1.05,6.3-3.15c.26-.35.49-.71.68-1.08-.09.03-.19.05-.29.05-.22,0-.44-.08-.62-.22Z"/>
      <path class="cls-1" d="m14.57,13.99c-.2,0-.4-.07-.56-.19-.01.1,0,.2-.02.3l.49.4s.07.03.09.03.06,0,.09-.03l1.07-.85c0-.1,0-.21.01-.31h0s-.55.44-.55.44c-.17.14-.39.22-.62.22Z"/>
      <path class="cls-1" d="m14.92,11.99c-.1.08-.23.12-.35.12s-.25-.04-.35-.12l-.33-.27h0s-1.08-.87-1.08-.87c-.21-.17-.5-.17-.71,0l-2.56,2.05.71.88.99-.8.86-.69c.21-.17.5-.17.71,0l.86.69.55.44c.1.08.21.11.33.12,0,0,.02,0,.03,0h0c.13,0,.25-.04.35-.12l.55-.44.86-.69c.21-.17.5-.17.71,0l.86.69.99.8.71-.88-2.56-2.05c-.21-.17-.5-.17-.71,0l-.87.69-.55.44Z"/>
    </g>
  </g>
</svg>