<?xml version="1.0" encoding="UTF-8"?>
<svg id="Layer_2" data-name="Layer 2" xmlns="https://www.w3.org/2000/svg" viewBox="0 0 14.51 25">
  <defs>
    <style>
      .cls-1 {
        fill: #fff;
        stroke-width: 0px;
      }
    </style>
  </defs>
  <g id="Layer_1-2" data-name="Layer 1">
    <g>
      <rect class="cls-1" x="11.44" y="2.79" width="2.05" height="1.02"/>
      <rect class="cls-1" x="11.44" y="6.89" width="1.02" height="1.02"/>
      <rect class="cls-1" x="11.44" y="4.84" width="3.07" height="1.02"/>
      <path class="cls-1" d="m7.18,25c-1.65,0-3.24-.55-4.53-1.6-1.68-1.37-2.65-3.4-2.65-5.56,0-2.87,1.69-5.42,4.27-6.56V3.07c0-1.69,1.38-3.07,3.07-3.07s3.07,1.38,3.07,3.07v8.37c2.87,1.45,4.44,4.67,3.77,7.91-.56,2.72-2.76,4.93-5.48,5.49-.51.11-1.02.16-1.52.16Zm.16-22.95c-.56,0-1.02.46-1.02,1.02v9.66l-.71.23c-2.13.68-3.56,2.64-3.56,4.88,0,1.55.69,3,1.89,3.97,1.2.98,2.78,1.35,4.34,1.03,1.93-.4,3.49-1.97,3.89-3.9.51-2.5-.81-4.97-3.16-5.88l-.65-.25V3.07c0-.56-.46-1.02-1.02-1.02Z"/>
    </g>
  </g>
</svg>