<?xml version="1.0" encoding="UTF-8"?>
<svg id="Layer_2" data-name="Layer 2" xmlns="http://www.w3.org/2000/svg" viewBox="0 0 25 20.11">
  <defs>
    <style>
      .cls-1 {
        fill: #fff;
        stroke-width: 0px;
      }
    </style>
  </defs>
  <g id="Layer_1-2" data-name="Layer 1">
    <g>
      <path class="cls-1" d="m13.49,20.11c-.59-.02-1.63-.19-2.5-1.04-.04-.03-1.03-.85-1.03-2.53h1.79c0,.8.42,1.18.43,1.2.51.49,1.11.57,1.34.58.92,0,1.7-.78,1.7-1.74v-.29c0-.96-.78-1.74-1.74-1.74H0v-1.79h13.49c1.95,0,3.53,1.58,3.53,3.53v.29c0,1.95-1.58,3.53-3.53,3.53Z"/>
      <path class="cls-1" d="m21.47,10.95H7.98v-1.79h13.49c.96,0,1.74-.78,1.74-1.74v-.29c0-.96-.78-1.74-1.74-1.74-.25.01-.81.1-1.25.53-.07.06-.49.44-.49,1.24h-1.79c0-1.67.99-2.5,1.1-2.59.8-.78,1.84-.95,2.39-.98h0c1.99,0,3.57,1.58,3.57,3.53v.29c0,1.95-1.58,3.53-3.53,3.53Z"/>
      <path class="cls-1" d="m13.49,7.35H0v-1.79h13.49c.96,0,1.74-.78,1.74-1.74v-.29c0-.96-.78-1.74-1.74-1.74-.25.01-.81.1-1.25.53-.07.06-.49.44-.49,1.24h-1.79c0-1.67.99-2.5,1.1-2.59.79-.78,1.84-.95,2.39-.97h0c1.99,0,3.57,1.58,3.57,3.53v.29c0,1.95-1.58,3.53-3.53,3.53Z"/>
    </g>
  </g>
</svg>